<?xml version="1.0" encoding="iso-8859-1"?>
<!-- Uploaded to: SVG Repo, www.svgrepo.com, Generator: SVG Repo Mixer Tools -->
<svg height="800px" width="800px" version="1.1" id="Layer_1" xmlns="http://www.w3.org/2000/svg" xmlns:xlink="http://www.w3.org/1999/xlink" 
	 viewBox="0 0 512 512" xml:space="preserve">
<path style="fill:#DC781E;" d="M503.916,234.442v75.453c0,53.578-43.433,97.011-97.011,97.011H105.095
	c-53.578,0-97.011-43.433-97.011-97.011v-75.453c0-53.578,43.433-97.011,97.011-97.011h301.811
	C460.483,137.432,503.916,180.864,503.916,234.442z"/>
<path style="fill:#F7A941;" d="M503.916,234.442v32.337c0,53.578-43.433,97.011-97.011,97.011H105.095
	c-53.578,0-97.011-43.433-97.011-97.011v-32.337c0-53.578,43.433-97.011,97.011-97.011h301.811
	C460.483,137.432,503.916,180.864,503.916,234.442z"/>
<path style="fill:#683B2B;" d="M503.916,223.663h-0.627c0.085,0.765,0.188,1.526,0.254,2.297
	c-3.873,41.041-38.414,73.156-80.469,73.156h-16.168h-43.116v18.863c0,14.882-12.065,26.947-26.947,26.947l0,0
	c-14.883,0-26.947-12.065-26.947-26.947v-18.863H180.547H88.926c-42.054,0-76.596-32.115-80.469-73.156
	c0.067-0.771,0.169-1.531,0.254-2.297H8.084v-32.337h10.094c15.873-31.941,48.828-53.895,86.916-53.895h301.811
	c38.089,0,71.043,21.953,86.916,53.895h10.094V223.663z"/>
<path style="fill:#8E5644;" d="M503.916,185.937L503.916,185.937c0,44.647-36.195,80.842-80.842,80.842h-16.168v51.2
	c0,14.882-12.065,26.947-26.947,26.947c-14.883,0-26.947-12.065-26.947-26.947v-51.2H88.926c-44.647,0-80.842-36.195-80.842-80.842
	l0,0c0-44.647,36.195-80.842,80.842-80.842h334.147C467.721,105.095,503.916,141.289,503.916,185.937z"/>
<path d="M177.853,175.158v10.779c0,10.401,8.463,18.863,18.863,18.863c10.401,0,18.863-8.463,18.863-18.863v-10.779
	c0-19.317,15.715-35.032,35.032-35.032s35.032,15.715,35.032,35.032v10.779c0,10.401,8.463,18.863,18.863,18.863
	s18.863-8.463,18.863-18.863v-10.779c0-19.317,15.715-35.032,35.032-35.032c19.317,0,35.032,15.715,35.032,35.032v10.779
	c0,10.401,8.463,18.863,18.863,18.863c10.401,0,18.863-8.463,18.863-18.863c0-13.372,10.88-24.253,24.253-24.253h5.389
	c4.466,0,8.084,3.618,8.084,8.084c0,4.466-3.618,8.084-8.084,8.084h-5.389c-4.458,0-8.084,3.626-8.084,8.084
	c0,19.317-15.715,35.032-35.032,35.032c-19.317,0-35.032-15.715-35.032-35.032v-10.779c0-10.401-8.463-18.863-18.863-18.863
	c-10.401,0-18.863,8.463-18.863,18.863v10.779c0,19.317-15.715,35.032-35.032,35.032s-35.032-15.715-35.032-35.032v-10.779
	c0-10.401-8.463-18.863-18.863-18.863c-10.401,0-18.863,8.463-18.863,18.863v10.779c0,19.317-15.715,35.032-35.032,35.032
	s-35.032-15.715-35.032-35.032v-10.779c0-10.401-8.463-18.863-18.863-18.863s-18.863,8.463-18.863,18.863v10.779
	c0,19.317-15.715,35.032-35.032,35.032s-35.032-15.715-35.032-35.032c0-4.458-3.626-8.084-8.084-8.084h-5.389
	c-4.466,0-8.084-3.618-8.084-8.084c0-4.466,3.618-8.084,8.084-8.084h5.389c13.372,0,24.253,10.88,24.253,24.253
	c0,10.401,8.463,18.863,18.863,18.863s18.863-8.463,18.863-18.863v-10.779c0-19.317,15.715-35.032,35.032-35.032
	S177.853,155.841,177.853,175.158z M508.931,209.134c2.037,8.239,3.069,16.747,3.069,25.308v75.453
	c0,57.95-47.145,105.095-105.095,105.095h-21.558c-4.466,0-8.084-3.618-8.084-8.084s3.618-8.084,8.084-8.084h21.558
	c49.033,0,88.926-39.893,88.926-88.926v-72.881c-16.106,22.876-42.716,37.849-72.758,37.849h-8.084v40.421
	c0,19.317-15.715,35.032-35.032,35.032c-8.112,0-15.59-2.771-21.534-7.418c-6.088,4.782-13.617,7.418-21.582,7.418
	c-19.317,0-35.032-15.715-35.032-35.032v-40.421H137.432c-4.466,0-8.084-3.618-8.084-8.084s3.618-8.084,8.084-8.084H353.01
	c4.466,0,8.084,3.618,8.084,8.084v48.505c0,10.401,8.463,18.863,18.863,18.863c10.401,0,18.863-8.463,18.863-18.863v-40.421h-13.474
	c-4.466,0-8.084-3.618-8.084-8.084s3.618-8.084,8.084-8.084h37.726c40.119,0,72.758-32.639,72.758-72.758
	s-32.639-72.758-72.758-72.758H88.926c-40.119,0-72.758,32.639-72.758,72.758s32.639,72.758,72.758,72.758h16.168
	c4.466,0,8.084,3.618,8.084,8.084s-3.618,8.084-8.084,8.084H88.926c-30.042,0-56.652-14.973-72.758-37.849v72.881
	c0,49.033,39.893,88.926,88.926,88.926H353.01c4.466,0,8.084,3.618,8.084,8.084s-3.618,8.084-8.084,8.084H105.095
	C47.145,414.989,0,367.844,0,309.895v-75.453c0-8.562,1.032-17.063,3.069-25.307C1.067,201.737,0,193.961,0,185.937
	c0-49.033,39.893-88.926,88.926-88.926h334.147c49.033,0,88.926,39.893,88.926,88.926C512,193.961,510.933,201.736,508.931,209.134z
	 M348.3,330.279c-2.163-4.549-3.374-9.633-3.374-14.995v-40.421h-26.947v40.421c0,10.401,8.463,18.863,18.863,18.863
	C341.059,334.147,345.049,332.774,348.3,330.279z"/>
</svg>